<svg width="900" height="1200" viewBox="0 0 900 1200" fill="none" xmlns="http://www.w3.org/2000/svg">
  <rect width="900" height="1200" rx="32" fill="#F8FAFC"/>
  <rect x="70" y="70" width="760" height="1060" rx="28" fill="white"/>
  <rect x="120" y="120" width="150" height="150" rx="24" fill="#E2E8F0"/>
  <circle cx="195" cy="178" r="34" fill="#CBD5E1"/>
  <path d="M151 245C161 212 188 195 219 195C249 195 277 212 287 245" fill="#CBD5E1"/>
  <text x="320" y="200" fill="#0F172A" font-family="Arial, sans-serif" font-size="58" font-weight="500">ResearchFlow</text>
  <text x="320" y="252" fill="#64748B" font-family="Arial, sans-serif" font-size="28">WeChat Group</text>

  <rect x="120" y="330" width="660" height="660" rx="28" fill="#F8FAFC" stroke="#CBD5E1" stroke-width="4"/>

  <rect x="150" y="360" width="120" height="120" rx="18" fill="#7C3AED"/>
  <rect x="176" y="386" width="68" height="68" rx="8" fill="white"/>
  <rect x="185" y="395" width="50" height="50" rx="6" fill="#8B5CF6"/>

  <rect x="630" y="360" width="120" height="120" rx="18" fill="#2563EB"/>
  <rect x="656" y="386" width="68" height="68" rx="8" fill="white"/>
  <rect x="665" y="395" width="50" height="50" rx="6" fill="#3B82F6"/>

  <rect x="150" y="840" width="120" height="120" rx="18" fill="#9333EA"/>
  <rect x="176" y="866" width="68" height="68" rx="8" fill="white"/>
  <rect x="185" y="875" width="50" height="50" rx="6" fill="#A855F7"/>

  <g fill="#6D5BD0">
    <rect x="310" y="370" width="14" height="14" rx="4"/>
    <rect x="338" y="370" width="14" height="14" rx="4"/>
    <rect x="366" y="370" width="14" height="14" rx="4"/>
    <rect x="422" y="370" width="14" height="14" rx="4"/>
    <rect x="478" y="370" width="14" height="14" rx="4"/>
    <rect x="534" y="370" width="14" height="14" rx="4"/>
    <rect x="310" y="398" width="14" height="14" rx="4"/>
    <rect x="366" y="398" width="14" height="14" rx="4"/>
    <rect x="394" y="398" width="14" height="14" rx="4"/>
    <rect x="422" y="398" width="14" height="14" rx="4"/>
    <rect x="450" y="398" width="14" height="14" rx="4"/>
    <rect x="534" y="398" width="14" height="14" rx="4"/>
    <rect x="562" y="398" width="14" height="14" rx="4"/>
    <rect x="590" y="398" width="14" height="14" rx="4"/>
    <rect x="310" y="426" width="14" height="14" rx="4"/>
    <rect x="338" y="426" width="14" height="14" rx="4"/>
    <rect x="394" y="426" width="14" height="14" rx="4"/>
    <rect x="450" y="426" width="14" height="14" rx="4"/>
    <rect x="478" y="426" width="14" height="14" rx="4"/>
    <rect x="506" y="426" width="14" height="14" rx="4"/>
    <rect x="562" y="426" width="14" height="14" rx="4"/>
    <rect x="590" y="426" width="14" height="14" rx="4"/>
    <rect x="338" y="454" width="14" height="14" rx="4"/>
    <rect x="366" y="454" width="14" height="14" rx="4"/>
    <rect x="422" y="454" width="14" height="14" rx="4"/>
    <rect x="450" y="454" width="14" height="14" rx="4"/>
    <rect x="506" y="454" width="14" height="14" rx="4"/>
    <rect x="534" y="454" width="14" height="14" rx="4"/>
    <rect x="590" y="454" width="14" height="14" rx="4"/>
    <rect x="310" y="482" width="14" height="14" rx="4"/>
    <rect x="366" y="482" width="14" height="14" rx="4"/>
    <rect x="394" y="482" width="14" height="14" rx="4"/>
    <rect x="450" y="482" width="14" height="14" rx="4"/>
    <rect x="478" y="482" width="14" height="14" rx="4"/>
    <rect x="534" y="482" width="14" height="14" rx="4"/>
    <rect x="562" y="482" width="14" height="14" rx="4"/>
    <rect x="590" y="482" width="14" height="14" rx="4"/>
    <rect x="310" y="510" width="14" height="14" rx="4"/>
    <rect x="338" y="510" width="14" height="14" rx="4"/>
    <rect x="366" y="510" width="14" height="14" rx="4"/>
    <rect x="422" y="510" width="14" height="14" rx="4"/>
    <rect x="478" y="510" width="14" height="14" rx="4"/>
    <rect x="506" y="510" width="14" height="14" rx="4"/>
    <rect x="562" y="510" width="14" height="14" rx="4"/>
    <rect x="338" y="538" width="14" height="14" rx="4"/>
    <rect x="394" y="538" width="14" height="14" rx="4"/>
    <rect x="422" y="538" width="14" height="14" rx="4"/>
    <rect x="450" y="538" width="14" height="14" rx="4"/>
    <rect x="506" y="538" width="14" height="14" rx="4"/>
    <rect x="534" y="538" width="14" height="14" rx="4"/>
    <rect x="590" y="538" width="14" height="14" rx="4"/>
    <rect x="310" y="566" width="14" height="14" rx="4"/>
    <rect x="366" y="566" width="14" height="14" rx="4"/>
    <rect x="394" y="566" width="14" height="14" rx="4"/>
    <rect x="478" y="566" width="14" height="14" rx="4"/>
    <rect x="506" y="566" width="14" height="14" rx="4"/>
    <rect x="562" y="566" width="14" height="14" rx="4"/>
    <rect x="590" y="566" width="14" height="14" rx="4"/>
    <rect x="338" y="594" width="14" height="14" rx="4"/>
    <rect x="366" y="594" width="14" height="14" rx="4"/>
    <rect x="422" y="594" width="14" height="14" rx="4"/>
    <rect x="450" y="594" width="14" height="14" rx="4"/>
    <rect x="478" y="594" width="14" height="14" rx="4"/>
    <rect x="534" y="594" width="14" height="14" rx="4"/>
    <rect x="562" y="594" width="14" height="14" rx="4"/>
    <rect x="310" y="622" width="14" height="14" rx="4"/>
    <rect x="338" y="622" width="14" height="14" rx="4"/>
    <rect x="394" y="622" width="14" height="14" rx="4"/>
    <rect x="450" y="622" width="14" height="14" rx="4"/>
    <rect x="478" y="622" width="14" height="14" rx="4"/>
    <rect x="506" y="622" width="14" height="14" rx="4"/>
    <rect x="590" y="622" width="14" height="14" rx="4"/>
    <rect x="310" y="650" width="14" height="14" rx="4"/>
    <rect x="366" y="650" width="14" height="14" rx="4"/>
    <rect x="394" y="650" width="14" height="14" rx="4"/>
    <rect x="422" y="650" width="14" height="14" rx="4"/>
    <rect x="478" y="650" width="14" height="14" rx="4"/>
    <rect x="562" y="650" width="14" height="14" rx="4"/>
    <rect x="590" y="650" width="14" height="14" rx="4"/>
    <rect x="338" y="678" width="14" height="14" rx="4"/>
    <rect x="366" y="678" width="14" height="14" rx="4"/>
    <rect x="394" y="678" width="14" height="14" rx="4"/>
    <rect x="450" y="678" width="14" height="14" rx="4"/>
    <rect x="506" y="678" width="14" height="14" rx="4"/>
    <rect x="534" y="678" width="14" height="14" rx="4"/>
    <rect x="590" y="678" width="14" height="14" rx="4"/>
    <rect x="310" y="706" width="14" height="14" rx="4"/>
    <rect x="338" y="706" width="14" height="14" rx="4"/>
    <rect x="422" y="706" width="14" height="14" rx="4"/>
    <rect x="450" y="706" width="14" height="14" rx="4"/>
    <rect x="478" y="706" width="14" height="14" rx="4"/>
    <rect x="562" y="706" width="14" height="14" rx="4"/>
    <rect x="590" y="706" width="14" height="14" rx="4"/>
    <rect x="338" y="734" width="14" height="14" rx="4"/>
    <rect x="394" y="734" width="14" height="14" rx="4"/>
    <rect x="422" y="734" width="14" height="14" rx="4"/>
    <rect x="506" y="734" width="14" height="14" rx="4"/>
    <rect x="534" y="734" width="14" height="14" rx="4"/>
    <rect x="562" y="734" width="14" height="14" rx="4"/>
    <rect x="310" y="762" width="14" height="14" rx="4"/>
    <rect x="366" y="762" width="14" height="14" rx="4"/>
    <rect x="394" y="762" width="14" height="14" rx="4"/>
    <rect x="450" y="762" width="14" height="14" rx="4"/>
    <rect x="478" y="762" width="14" height="14" rx="4"/>
    <rect x="534" y="762" width="14" height="14" rx="4"/>
    <rect x="590" y="762" width="14" height="14" rx="4"/>
    <rect x="338" y="790" width="14" height="14" rx="4"/>
    <rect x="366" y="790" width="14" height="14" rx="4"/>
    <rect x="422" y="790" width="14" height="14" rx="4"/>
    <rect x="450" y="790" width="14" height="14" rx="4"/>
    <rect x="506" y="790" width="14" height="14" rx="4"/>
    <rect x="562" y="790" width="14" height="14" rx="4"/>
    <rect x="590" y="790" width="14" height="14" rx="4"/>
    <rect x="310" y="818" width="14" height="14" rx="4"/>
    <rect x="338" y="818" width="14" height="14" rx="4"/>
    <rect x="394" y="818" width="14" height="14" rx="4"/>
    <rect x="478" y="818" width="14" height="14" rx="4"/>
    <rect x="534" y="818" width="14" height="14" rx="4"/>
    <rect x="562" y="818" width="14" height="14" rx="4"/>
    <rect x="590" y="818" width="14" height="14" rx="4"/>
    <rect x="338" y="846" width="14" height="14" rx="4"/>
    <rect x="366" y="846" width="14" height="14" rx="4"/>
    <rect x="394" y="846" width="14" height="14" rx="4"/>
    <rect x="450" y="846" width="14" height="14" rx="4"/>
    <rect x="478" y="846" width="14" height="14" rx="4"/>
    <rect x="506" y="846" width="14" height="14" rx="4"/>
    <rect x="562" y="846" width="14" height="14" rx="4"/>
    <rect x="590" y="846" width="14" height="14" rx="4"/>
    <rect x="310" y="874" width="14" height="14" rx="4"/>
    <rect x="366" y="874" width="14" height="14" rx="4"/>
    <rect x="422" y="874" width="14" height="14" rx="4"/>
    <rect x="450" y="874" width="14" height="14" rx="4"/>
    <rect x="534" y="874" width="14" height="14" rx="4"/>
    <rect x="590" y="874" width="14" height="14" rx="4"/>
    <rect x="338" y="902" width="14" height="14" rx="4"/>
    <rect x="394" y="902" width="14" height="14" rx="4"/>
    <rect x="422" y="902" width="14" height="14" rx="4"/>
    <rect x="478" y="902" width="14" height="14" rx="4"/>
    <rect x="506" y="902" width="14" height="14" rx="4"/>
    <rect x="562" y="902" width="14" height="14" rx="4"/>
  </g>

  <rect x="355" y="575" width="190" height="190" rx="26" fill="#6D5BD0"/>
  <circle cx="432" cy="646" r="38" fill="white"/>
  <circle cx="489" cy="668" r="32" fill="white"/>
  <circle cx="420" cy="634" r="6" fill="#6D5BD0"/>
  <circle cx="455" cy="634" r="6" fill="#6D5BD0"/>
  <circle cx="478" cy="666" r="5" fill="#6D5BD0"/>
  <circle cx="502" cy="666" r="5" fill="#6D5BD0"/>
  <path d="M410 682L394 705L398 676" fill="white"/>
  <path d="M500 697L514 716L510 690" fill="white"/>

  <text x="450" y="1050" text-anchor="middle" fill="#94A3B8" font-family="Arial, sans-serif" font-size="28">
    Add me on WeChat to join the community.
  </text>
</svg>
